HIERARCHY
ROOT joint_Root
{
  OFFSET 0 0 0
  CHANNELS 6 Xposition Yposition Zposition Zrotation Xrotation Yrotation
  JOINT Hips
  {
    OFFSET 0 93.9241 -3
    CHANNELS 6 Xposition Yposition Zposition Zrotation Xrotation Yrotation
    JOINT Spine
    {
      OFFSET 15.7357 0 0
      CHANNELS 6 Xposition Yposition Zposition Zrotation Xrotation Yrotation
      JOINT Chest
      {
        OFFSET 8.98455 -0.406207 0
        CHANNELS 6 Xposition Yposition Zposition Zrotation Xrotation Yrotation
        JOINT Neck
        {
          OFFSET 16.3773 0 0
          CHANNELS 6 Xposition Yposition Zposition Zrotation Xrotation Yrotation
          JOINT Head
          {
            OFFSET 6.45672 0 0
            CHANNELS 6 Xposition Yposition Zposition Zrotation Xrotation Yrotation
            End Site
            {
              OFFSET 0 0 0
            }
          }
        }
        JOINT Shoulder_L
        {
          OFFSET 12.9942 -0.242716 4.98039
          CHANNELS 6 Xposition Yposition Zposition Zrotation Xrotation Yrotation
          JOINT UpperArm_L
          {
            OFFSET 5.34809 0 0
            CHANNELS 6 Xposition Yposition Zposition Zrotation Xrotation Yrotation
            JOINT LowerArm_L
            {
              OFFSET 24.3286 1.87007e-05 0
              CHANNELS 6 Xposition Yposition Zposition Zrotation Xrotation Yrotation
              JOINT Hand_L
              {
                OFFSET 22.2916 0 0
                CHANNELS 6 Xposition Yposition Zposition Zrotation Xrotation Yrotation
                End Site
                {
                  OFFSET 0 0 0
                }
              }
            }
          }
        }
        JOINT Shoulder_R
        {
          OFFSET 12.9945 -0.242716 -4.98039
          CHANNELS 6 Xposition Yposition Zposition Zrotation Xrotation Yrotation
          JOINT UpperArm_R
          {
            OFFSET -5.34813 0 0
            CHANNELS 6 Xposition Yposition Zposition Zrotation Xrotation Yrotation
            JOINT LowerArm_R
            {
              OFFSET -24.3289 0.000322201 0
              CHANNELS 6 Xposition Yposition Zposition Zrotation Xrotation Yrotation
              JOINT Hand_R
              {
                OFFSET -22.2915 -0.000108084 0
                CHANNELS 6 Xposition Yposition Zposition Zrotation Xrotation Yrotation
                End Site
                {
                  OFFSET 0 0 0
                }
              }
            }
          }
        }
      }
    }
    JOINT UpperLeg_L
    {
      OFFSET -2.19248 -6.46944 0
      CHANNELS 6 Xposition Yposition Zposition Zrotation Xrotation Yrotation
      JOINT LowerLeg_L
      {
        OFFSET 39.0811 0 -1.23785e-05
        CHANNELS 6 Xposition Yposition Zposition Zrotation Xrotation Yrotation
        JOINT Foot_L
        {
          OFFSET 40.9854 0 -1.26872e-05
          CHANNELS 6 Xposition Yposition Zposition Zrotation Xrotation Yrotation
          JOINT Toes_L
          {
            OFFSET 11.7543 0 0
            CHANNELS 6 Xposition Yposition Zposition Zrotation Xrotation Yrotation
            End Site
            {
              OFFSET 0 0 0
            }
          }
        }
      }
    }
    JOINT UpperLeg_R
    {
      OFFSET -2.19251 6.46944 0
      CHANNELS 6 Xposition Yposition Zposition Zrotation Xrotation Yrotation
      JOINT LowerLeg_R
      {
        OFFSET -39.0811 -0.00228153 -0.0401928
        CHANNELS 6 Xposition Yposition Zposition Zrotation Xrotation Yrotation
        JOINT Foot_R
        {
          OFFSET -40.9854 0 0
          CHANNELS 6 Xposition Yposition Zposition Zrotation Xrotation Yrotation
          JOINT Toes_R
          {
            OFFSET -11.7543 0 0
            CHANNELS 6 Xposition Yposition Zposition Zrotation Xrotation Yrotation
            End Site
            {
              OFFSET 0 0 0
            }
          }
        }
      }
    }
  }
}
MOTION
Frames:	9
Frame Time:	0.0333333
0 0 0 0 0 -0 -6.53869 85.9439 -7.247 83.4478 -0.911185 -0.015838 15.7357 5.1072e-06 -5.51765e-07 93.4307 76.347 -91.927 8.98455 -0.406207 -4.3199e-07 19.4756 1.75209 2.71516 16.3773 -1.3905e-06 -6.99897e-07 -2.51385 -0.325786 -2.78539 6.45672 -1.25837e-06 -1.02172e-07 3.97571 -4.77763 -0.304097 12.9942 -0.242716 4.98039 -89.387 -11.0061 -101.793 5.34809 -7.22636e-06 -6.2814e-07 -86.7156 10.0869 -6.70993 24.3286 1.87007e-05 4.90208e-06 6.2818 -5.484 -130.962 22.2916 -9.88446e-07 4.63217e-06 7.53224 5.2298 1.95792 12.9945 -0.242716 -4.98039 89.7378 -7.0389 -107.138 -5.34813 -1.25947e-06 -3.79883e-06 -79.9033 16.2992 -12.6016 -24.3289 0.000322201 -8.65921e-06 11.0402 -7.98295 -125.443 -22.2915 -0.000108084 -4.47941e-06 31.973 5.63285 -13.5528 -2.19248 -6.46944 -1.22534e-07 -175.824 2.42431 -23.6595 39.0811 -6.73843e-06 -1.23785e-05 -0.612915 0.0610963 83.5139 40.9854 -6.48686e-06 -1.26872e-05 6.51398 -9.02914 -40.3065 11.7543 -2.30145e-07 3.05095e-06 0.437211 -0.529505 -21.5818 -2.19251 6.46944 -1.45247e-06 -167.391 0.347249 156.9 -39.0811 -0.00228153 -0.0401928 -0.0650166 0.102697 47.7955 -40.9854 7.72618e-06 5.99936e-06 2.13288 -11.861 -75.2681 -11.7543 -5.6619e-06 -5.58687e-06 0.0152125 -0.0157653 -16.6958 
0 0 0 0 0 -0 -6.70114 87.1409 -1.09665 85.2034 1.7697 -0.158038 15.7357 5.1072e-06 -5.51765e-07 96.7102 76.329 -95.6003 8.98455 -0.406207 -4.3199e-07 19.3794 3.23929 1.67288 16.3773 -1.3905e-06 -6.99897e-07 -1.65442 -0.475889 -1.97716 6.45672 -1.25837e-06 -1.02172e-07 5.16446 -5.29461 1.05092 12.9942 -0.242716 4.98039 -89.2832 -11.3475 -101.362 5.34809 -7.22636e-06 -6.2814e-07 -87.1106 6.32879 -3.36952 24.3286 1.87007e-05 4.90208e-06 4.07705 -3.59395 -131.336 22.2916 -9.88446e-07 4.63217e-06 8.82376 5.22287 2.14007 12.9945 -0.242716 -4.98039 89.6215 -7.22989 -108.005 -5.34813 -1.25947e-06 -3.79883e-06 -80.6324 16.9313 -15.4097 -24.3289 0.000322201 -8.65921e-06 10.1394 -7.35846 -125.609 -22.2915 -0.000108084 -4.47941e-06 32.1486 5.63723 -13.8983 -2.19248 -6.46944 -1.22534e-07 -177.238 5.39017 -28.5608 39.0811 -6.73843e-06 -1.23785e-05 -0.596055 0.0797978 81.4224 40.9854 -6.48686e-06 -1.26872e-05 7.14431 -9.22556 -45.4253 11.7543 -2.30145e-07 3.05095e-06 0.44498 -0.539812 -21.6757 -2.19251 6.46944 -1.45247e-06 -169.325 4.77347 163.899 -39.0811 -0.00228153 -0.0401928 -0.0275199 0.0736767 42.4994 -40.9854 7.72618e-06 5.99936e-06 2.17769 -10.3345 -77.755 -11.7543 -5.6619e-06 -5.58687e-06 0.065945 -0.0688619 -17.1047 
0 0 0 0 0 -0 -6.53473 89.3246 4.8301 87.6903 3.5818 -1.64051 15.7357 5.1072e-06 -5.51765e-07 100.771 76.735 -100.478 8.98455 -0.406207 -4.3199e-07 18.3315 4.89067 -0.203167 16.3773 -1.3905e-06 -6.99897e-07 0.0133471 -0.617372 -1.20832 6.45672 -1.25837e-06 -1.02172e-07 5.99734 -5.69491 2.46038 12.9942 -0.242716 4.98039 -89.1122 -11.994 -100.736 5.34809 -7.22636e-06 -6.2814e-07 -85.9402 2.79226 -0.416269 24.3286 1.87007e-05 4.90208e-06 1.3801 -1.27939 -132.838 22.2916 -9.88446e-07 4.63217e-06 8.79504 5.23896 1.72249 12.9945 -0.242716 -4.98039 89.5489 -7.09215 -108.648 -5.34813 -1.25947e-06 -3.79883e-06 -81.6235 18.2285 -17.186 -24.3289 0.000322201 -8.65921e-06 9.74942 -7.41656 -126.915 -22.2915 -0.000108084 -4.47941e-06 32.0071 5.64288 -14.3845 -2.19248 -6.46944 -1.22534e-07 -179.449 6.41239 -31.9587 39.0811 -6.73843e-06 -1.23785e-05 -0.456679 0.135019 72.4496 40.9854 -6.48686e-06 -1.26872e-05 7.60266 -10.1151 -50.227 11.7543 -2.30145e-07 3.05095e-06 0.442458 -0.536461 -21.6452 -2.19251 6.46944 -1.45247e-06 -172.12 6.57639 169.158 -39.0811 -0.00228153 -0.0401928 0.0512012 -0.0303001 35.9633 -40.9854 7.72618e-06 5.99936e-06 2.25071 -9.8839 -71.3664 -11.7543 -5.6619e-06 -5.58687e-06 0.193974 -0.894273 -23.3883 
0 0 0 0 0 -0 -6.05003 91.8122 10.6095 90.3078 4.30743 -4.11743 15.7357 5.1072e-06 -5.51765e-07 104.528 77.1871 -105.092 8.98455 -0.406207 -4.3199e-07 17.1457 6.27478 -2.07867 16.3773 -1.3905e-06 -6.99897e-07 0.649175 0.00583957 -1.1903 6.45672 -1.25837e-06 -1.02172e-07 6.94353 -6.01313 3.28955 12.9942 -0.242716 4.98039 -88.8394 -12.381 -99.6027 5.34809 -7.22636e-06 -6.2814e-07 -84.5223 -0.39657 1.57108 24.3286 1.87007e-05 4.90208e-06 1.07325 -1.0345 -133.938 22.2916 -9.88446e-07 4.63217e-06 8.60209 5.24816 1.48165 12.9945 -0.242716 -4.98039 89.438 -7.16879 -109.494 -5.34813 -1.25947e-06 -3.79883e-06 -81.8354 19.8208 -19.0771 -24.3289 0.000322201 -8.65921e-06 11.0867 -8.7534 -127.832 -22.2915 -0.000108084 -4.47941e-06 31.245 5.64317 -14.3924 -2.19248 -6.46944 -1.22534e-07 177.927 6.49137 -33.1877 39.0811 -6.73843e-06 -1.23785e-05 -0.277731 0.169882 57.2357 40.9854 -6.48686e-06 -1.26872e-05 7.50593 -11.7665 -52.5806 11.7543 -2.30145e-07 3.05095e-06 0.444142 -0.538696 -21.6656 -2.19251 6.46944 -1.45247e-06 -175.1 5.88645 172.301 -39.0811 -0.00228153 -0.0401928 0.00826126 0.0210787 30.2925 -40.9854 7.72618e-06 5.99936e-06 2.44476 -10.7221 -60.8686 -11.7543 -5.6619e-06 -5.58687e-06 0.986488 -1.98833 -29.0978 
0 0 0 0 0 -0 -5.64839 93.7851 16.5349 91.4887 4.89673 -6.23747 15.7357 5.1072e-06 -5.51765e-07 107.898 77.6203 -108.726 8.98455 -0.406207 -4.3199e-07 15.947 7.43955 -2.70414 16.3773 -1.3905e-06 -6.99897e-07 0.326927 0.578729 -1.46097 6.45672 -1.25837e-06 -1.02172e-07 8.52648 -5.86963 3.45362 12.9942 -0.242716 4.98039 -88.6326 -12.4568 -98.685 5.34809 -7.22636e-06 -6.2814e-07 -84.0859 -2.65102 3.43197 24.3286 1.87007e-05 4.90208e-06 1.96771 -1.93309 -134.474 22.2916 -9.88446e-07 4.63217e-06 8.26292 5.2458 1.54377 12.9945 -0.242716 -4.98039 89.397 -7.31144 -109.727 -5.34813 -1.25947e-06 -3.79883e-06 -81.4537 21.586 -20.0498 -24.3289 0.000322201 -8.65921e-06 12.1531 -9.71313 -128.076 -22.2915 -0.000108084 -4.47941e-06 30.6515 5.64578 -14.6273 -2.19248 -6.46944 -1.22534e-07 177.047 7.03575 -30.8024 39.0811 -6.73843e-06 -1.23785e-05 -0.10583 0.131473 37.1236 40.9854 -6.48686e-06 -1.26872e-05 6.74529 -9.59523 -54.5753 11.7543 -2.30145e-07 3.05095e-06 0.440432 -0.533777 -21.6208 -2.19251 6.46944 -1.45247e-06 -176.497 5.30567 173.916 -39.0811 -0.00228153 -0.0401928 -0.0177075 0.0632926 27.3035 -40.9854 7.72618e-06 5.99936e-06 4.05108 -10.8631 -49.2968 -11.7543 -5.6619e-06 -5.58687e-06 2.06703 -3.11147 -37.438 
0 0 0 0 0 -0 -5.49027 94.411 23.0823 90.3612 5.40534 -6.2777 15.7357 5.1072e-06 -5.51765e-07 110.614 77.6293 -110.855 8.98455 -0.406207 -4.3199e-07 15.5345 8.57364 -1.65424 16.3773 -1.3905e-06 -6.99897e-07 -0.358246 0.889118 -1.8741 6.45672 -1.25837e-06 -1.02172e-07 9.73052 -5.38179 3.09436 12.9942 -0.242716 4.98039 -88.5885 -12.4347 -98.4722 5.34809 -7.22636e-06 -6.2814e-07 -84.8965 -4.12497 5.16088 24.3286 1.87007e-05 4.90208e-06 2.86215 -2.86679 -135.01 22.2916 -9.88446e-07 4.63217e-06 7.79103 5.24097 1.67055 12.9945 -0.242716 -4.98039 89.4274 -7.75818 -109.235 -5.34813 -1.25947e-06 -3.79883e-06 -81.424 23.0512 -20.2085 -24.3289 0.000322201 -8.65921e-06 13.2052 -10.502 -127.839 -22.2915 -0.000108084 -4.47941e-06 30.5182 5.64969 -14.9896 -2.19248 -6.46944 -1.22534e-07 178.769 7.09945 -25.3365 39.0811 -6.73843e-06 -1.23785e-05 -0.0160633 0.0398644 18.5785 40.9854 -6.48686e-06 -1.26872e-05 2.74002 -3.92388 -57.8016 11.7543 -2.30145e-07 3.05095e-06 0.444582 -0.539284 -21.671 -2.19251 6.46944 -1.45247e-06 -175.211 2.96232 174.808 -39.0811 -0.00228153 -0.0401928 -0.0575178 0.122531 30.7728 -40.9854 7.72618e-06 5.99936e-06 5.83345 -11.2167 -43.0691 -11.7543 -5.6619e-06 -5.58687e-06 1.67742 -2.30123 -32.4497 
0 0 0 0 0 -0 -5.12427 93.6152 29.9667 89.3012 5.59582 -5.24341 15.7357 5.1072e-06 -5.51765e-07 110.667 77.5247 -110.316 8.98455 -0.406207 -4.3199e-07 15.6815 8.70545 -0.498059 16.3773 -1.3905e-06 -6.99897e-07 -0.52829 1.35156 -1.93725 6.45672 -1.25837e-06 -1.02172e-07 9.45825 -4.7301 1.7649 12.9942 -0.242716 4.98039 -88.7157 -11.9831 -98.8374 5.34809 -7.22636e-06 -6.2814e-07 -86.0743 -4.82452 6.11879 24.3286 1.87007e-05 4.90208e-06 3.51374 -3.5546 -135.278 22.2916 -9.88446e-07 4.63217e-06 7.43144 5.24811 1.48206 12.9945 -0.242716 -4.98039 89.4637 -8.14827 -108.779 -5.34813 -1.25947e-06 -3.79883e-06 -81.5925 23.4572 -19.7601 -24.3289 0.000322201 -8.65921e-06 14.1726 -11.1455 -127.432 -22.2915 -0.000108084 -4.47941e-06 30.5118 5.65232 -15.2458 -2.19248 -6.46944 -1.22534e-07 -179.484 8.83435 -22.1378 39.0811 -6.73843e-06 -1.23785e-05 -0.00282704 0.00685556 12.0004 40.9854 -6.48686e-06 -1.26872e-05 -0.44304 -2.37604 -60.9752 11.7543 -2.30145e-07 3.05095e-06 0.435462 -0.527197 -21.5607 -2.19251 6.46944 -1.45247e-06 -174.039 -0.355305 173.629 -39.0811 -0.00228153 -0.0401928 -0.114861 0.15491 41.0202 -40.9854 7.72618e-06 5.99936e-06 3.42262 -12.9915 -42.1955 -11.7543 -5.6619e-06 -5.58687e-06 0.63032 -0.715679 -21.8822 
0 0 0 0 0 -0 -4.22241 91.751 36.7615 90.3326 5.49754 -4.40059 15.7357 5.1072e-06 -5.51765e-07 107.015 77.6396 -106.792 8.98455 -0.406207 -4.3199e-07 15.9472 7.14399 -0.55474 16.3773 -1.3905e-06 -6.99897e-07 -0.429423 1.84588 -1.84873 6.45672 -1.25837e-06 -1.02172e-07 8.50968 -3.55078 -0.00953423 12.9942 -0.242716 4.98039 -88.9092 -11.3567 -99.4776 5.34809 -7.22636e-06 -6.2814e-07 -87.26 -4.39356 5.65104 24.3286 1.87007e-05 4.90208e-06 4.05269 -4.0192 -134.693 22.2916 -9.88446e-07 4.63217e-06 7.43966 5.24932 1.45103 12.9945 -0.242716 -4.98039 89.4904 -8.66806 -108.378 -5.34813 -1.25947e-06 -3.79883e-06 -81.7267 22.9054 -19.1117 -24.3289 0.000322201 -8.65921e-06 13.6163 -10.5225 -127.012 -22.2915 -0.000108084 -4.47941e-06 30.5317 5.65291 -15.2988 -2.19248 -6.46944 -1.22534e-07 178.41 9.37242 -24.749 39.0811 -6.73843e-06 -1.23785e-05 0.0950193 -0.212282 21.7858 40.9854 -6.48686e-06 -1.26872e-05 2.47361 -3.11792 -58.8354 11.7543 -2.30145e-07 3.05095e-06 0.478678 -0.584948 -22.0859 -2.19251 6.46944 -1.45247e-06 -175.765 -1.64318 169.99 -39.0811 -0.00228153 -0.0401928 -0.197837 0.153807 54.9187 -40.9854 7.72618e-06 5.99936e-06 1.60048 -17.5171 -44.7266 -11.7543 -5.6619e-06 -5.58687e-06 0.574965 -0.64724 -21.3928 
0 0 0 0 0 -0 -2.67926 89.1447 43.2567 93.7349 4.74521 -3.51246 15.7357 5.1072e-06 -5.51765e-07 100.314 77.7094 -101.292 8.98455 -0.406207 -4.3199e-07 16.4885 4.25852 -2.57576 16.3773 -1.3905e-06 -6.99897e-07 0.830603 1.93834 -1.19356 6.45672 -1.25837e-06 -1.02172e-07 5.1676 -2.00164 -1.38552 12.9942 -0.242716 4.98039 -89.0299 -11.0695 -99.9596 5.34809 -7.22636e-06 -6.2814e-07 -87.8733 -2.1723 3.25754 24.3286 1.87007e-05 4.90208e-06 3.64017 -3.40409 -133.02 22.2916 -9.88446e-07 4.63217e-06 7.82184 5.25482 1.30555 12.9945 -0.242716 -4.98039 89.6121 -8.69922 -107.561 -5.34813 -1.25947e-06 -3.79883e-06 -81.1079 21.8984 -18.6675 -24.3289 0.000322201 -8.65921e-06 13.5545 -10.1318 -126.117 -22.2915 -0.000108084 -4.47941e-06 31.1872 5.65183 -15.2003 -2.19248 -6.46944 -1.22534e-07 172.916 6.86266 -27.0742 39.0811 -6.73843e-06 -1.23785e-05 0.153135 -0.173839 35.6829 40.9854 -6.48686e-06 -1.26872e-05 4.12911 -2.17109 -61.7603 11.7543 -2.30145e-07 3.05095e-06 0.202609 -0.233728 -18.8316 -2.19251 6.46944 -1.45247e-06 178.959 -1.46161 164.721 -39.0811 -0.00228153 -0.0401928 -0.380426 0.147216 69.3715 -40.9854 7.72618e-06 5.99936e-06 4.57896 -20.8683 -46.6912 -11.7543 -5.6619e-06 -5.58687e-06 0.552366 -0.619637 -21.1944 
